<svg xmlns="http://www.w3.org/2000/svg" width="220" height="70" viewBox="0 0 220 70" fill="none" role="img" aria-label="MV signature logo">
  <path d="M12 58
           C22 42, 36 24, 54 8
           C62 2, 70 2, 64 14
           C58 26, 52 38, 54 46
           C55 52, 61 50, 68 43
           L98 16
           C106 9, 113 8, 108 20
           C102 35, 94 49, 97 56
           C100 62, 109 60, 118 53
           M121 54
           L132 22
           C134 16, 141 16, 139 24
           L129 53
           C128 58, 132 60, 137 56
           C157 41, 180 28, 203 25
           C209 24, 214 25, 218 27"
        stroke="currentColor"
        stroke-width="8"
        stroke-linecap="round"
        stroke-linejoin="round"/>
</svg>
